<?xml version="1.0" encoding="UTF-8"?>
<svg version="1.1" xmlns="http://www.w3.org/2000/svg" width="464" height="470">
<path d="M0 0 C153.12 0 306.24 0 464 0 C464 155.1 464 310.2 464 470 C310.88 470 157.76 470 0 470 C0 314.9 0 159.8 0 0 Z " fill="#FEFDFD" transform="translate(0,0)"/>
<path d="M0 0 C153.12 0 306.24 0 464 0 C464 155.1 464 310.2 464 470 C310.88 470 157.76 470 0 470 C0 314.9 0 159.8 0 0 Z M36 89 C36 191.96 36 294.92 36 401 C165.69 401 295.38 401 429 401 C429 298.04 429 195.08 429 89 C299.31 89 169.62 89 36 89 Z " fill="#FFFFFF" transform="translate(0,0)"/>
<path d="M0 0 C129.69 0 259.38 0 393 0 C393 102.96 393 205.92 393 312 C263.31 312 133.62 312 0 312 C0 209.04 0 106.08 0 0 Z M5 5 C5 104.66 5 204.32 5 307 C131.39 307 257.78 307 388 307 C388 207.34 388 107.68 388 5 C261.61 5 135.22 5 5 5 Z " fill="#000000" transform="translate(36,89)"/>
<path d="M0 0 C5.48013431 4.20029103 9.77246115 9.42797618 14 14.8515625 C16.7019947 18.25568844 19.64306454 21.39078388 22.6484375 24.52734375 C27.73522656 31.40489018 26.33330314 45.53977777 25.1796875 53.59765625 C23.27644627 57.8343927 21.02206927 60.05939412 17.1796875 62.59765625 C16.40109375 63.12230469 15.6225 63.64695312 14.8203125 64.1875 C8.77003108 67.85218388 3.62448452 68.72754117 -3.43359375 68.6953125 C-5.3043457 68.69047852 -5.3043457 68.69047852 -7.21289062 68.68554688 C-8.50646484 68.67716797 -9.80003906 68.66878906 -11.1328125 68.66015625 C-13.10217773 68.65338867 -13.10217773 68.65338867 -15.11132812 68.64648438 C-18.3477026 68.63471574 -21.58398428 68.61827385 -24.8203125 68.59765625 C-24.70239224 74.70334732 -24.57816877 80.80886444 -24.44799805 86.91430664 C-24.40457916 88.99304682 -24.36290938 91.07182428 -24.32299805 93.15063477 C-24.26546329 96.1317877 -24.20172131 99.11275174 -24.13671875 102.09375 C-24.12000626 103.02916122 -24.10329376 103.96457245 -24.08607483 104.92832947 C-24.06612961 105.78914627 -24.04618439 106.64996307 -24.02563477 107.53686523 C-24.01009048 108.298535 -23.9945462 109.06020477 -23.97853088 109.84495544 C-24.00651921 111.62500631 -24.00651921 111.62500631 -22.8203125 112.59765625 C-22.65234375 114.59375 -22.65234375 114.59375 -22.6328125 117.03515625 C-22.61863281 117.83824219 -22.60445312 118.64132812 -22.58984375 119.46875 C-22.8203125 121.59765625 -22.8203125 121.59765625 -24.8203125 123.59765625 C-26.6953125 123.86328125 -26.6953125 123.86328125 -28.8203125 123.84765625 C-29.5215625 123.8528125 -30.2228125 123.85796875 -30.9453125 123.86328125 C-32.8203125 123.59765625 -32.8203125 123.59765625 -34.8203125 121.59765625 C-35.52412407 119.61042357 -36.1914936 117.60987672 -36.8203125 115.59765625 C-37.1503125 114.93765625 -37.4803125 114.27765625 -37.8203125 113.59765625 C-37.97225911 110.90724274 -38.06597532 108.23919866 -38.11743164 105.54638672 C-38.13708481 104.71348114 -38.15673798 103.88057556 -38.17698669 103.02243042 C-38.24111478 100.25331818 -38.29837028 97.48410919 -38.35546875 94.71484375 C-38.39851534 92.78304238 -38.44193203 90.85124922 -38.48570251 88.91946411 C-38.57679833 84.85570958 -38.66474132 80.79190334 -38.75024414 76.72802734 C-38.85899655 71.56173357 -38.97332783 66.39558418 -39.08982182 61.22945976 C-39.17973571 57.22961745 -39.26764776 53.22973317 -39.35488701 49.2298317 C-39.39639168 47.32836248 -39.43824827 45.42690092 -39.48048592 43.52544785 C-39.59449378 38.34833526 -39.6976683 33.17126093 -39.78065872 27.99355316 C-39.8071978 26.3900514 -39.83674938 24.78659679 -39.86924362 23.18320465 C-39.91313666 20.93090682 -39.94376013 18.67882808 -39.97045898 16.42626953 C-39.99003159 15.15163849 -40.00960419 13.87700745 -40.0297699 12.56375122 C-39.8203125 9.59765625 -39.8203125 9.59765625 -37.8203125 7.59765625 C-36.0259375 7.47390625 -36.0259375 7.47390625 -34.1953125 7.34765625 C-29.67245208 6.91260797 -27.16694007 4.97466135 -23.77734375 2.0703125 C-17.25427217 -2.83826631 -7.27126031 -3.61548816 0 0 Z " fill="#FE832E" transform="translate(105.8203125,235.40234375)"/>
<path d="M0 0 C3.5625 0.375 3.5625 0.375 5.25813293 2.02581787 C6.89356366 4.97124999 6.95954403 6.9735916 6.99487305 10.33691406 C7.02456429 12.13832855 7.02456429 12.13832855 7.05485535 13.97613525 C7.06124527 15.26791687 7.06763519 16.55969849 7.07421875 17.890625 C7.09107008 19.23013961 7.10922094 20.56963846 7.12861633 21.90911865 C7.17607396 25.42715527 7.20591028 28.94512795 7.23205566 32.46337891 C7.26188289 36.05644355 7.3084057 39.64928797 7.35351562 43.2421875 C7.43950011 50.2863322 7.50686678 57.33054492 7.5625 64.375 C7.85874268 63.27196533 8.15498535 62.16893066 8.46020508 61.0324707 C11.28114775 51.67243921 21.01388408 44.20730251 29.2265625 39.26953125 C34.09879778 36.803663 38.85193826 36.46195439 44.25 36.4375 C45.11149658 36.43347168 45.97299316 36.42944336 46.8605957 36.42529297 C51.1153766 36.61503149 52.93491051 36.77072653 56.0859375 39.8046875 C57.5625 42.375 57.5625 42.375 58.5 44.4375 C59.50127035 46.6166407 59.50127035 46.6166407 62.1015625 48.07421875 C64.5625 50.375 64.5625 50.375 65.05859375 53.546875 C65.02958984 55.31804687 65.02958984 55.31804687 65 57.125 C65.25120812 64.02963457 66.63953024 67.59717923 71.5625 72.375 C72.6453125 73.5196875 72.6453125 73.5196875 73.75 74.6875 C77.38428944 76.86807366 81.0252491 77.71825757 85.13671875 78.6640625 C87.5625 79.375 87.5625 79.375 89.5625 81.375 C89.828125 83.25 89.828125 83.25 89.8125 85.375 C89.82023437 86.426875 89.82023437 86.426875 89.828125 87.5 C89.5625 89.375 89.5625 89.375 87.5625 91.375 C80.52189829 92.12400018 72.9048994 90.73990524 67.078125 86.6171875 C65.15625278 84.93384552 63.32760062 83.22102214 61.5625 81.375 C61.315 82.1175 61.0675 82.86 60.8125 83.625 C58.82073687 88.00687888 55.99728007 90.58827097 51.5625 92.375 C46.88851842 92.88704711 42.19904841 92.83772445 37.5 92.875 C36.22705078 92.91625 34.95410156 92.9575 33.64257812 93 C24.87858995 93.07202045 18.6855172 91.61098554 11.5625 86.375 C8.875 83.5 8.875 83.5 7.5625 81.375 C7.088125 82.509375 6.61375 83.64375 6.125 84.8125 C4.5625 88.375 4.5625 88.375 3.5625 89.375 C0.125 89.5625 0.125 89.5625 -3.4375 89.375 C-5.97746453 86.83503547 -5.68123475 85.21842373 -5.70855713 81.75416565 C-5.70450867 80.96968552 -5.70046021 80.18520538 -5.69628906 79.37695312 C-5.6997937 78.55082016 -5.70329834 77.72468719 -5.70690918 76.8735199 C-5.71573381 74.13434522 -5.7098748 71.39542744 -5.703125 68.65625 C-5.70447144 66.7581782 -5.7064118 64.86010674 -5.70892334 62.96203613 C-5.71187559 58.98067955 -5.70757371 54.99941259 -5.69824219 51.01806641 C-5.6868476 45.90647497 -5.69340653 40.79509355 -5.70538712 35.68350983 C-5.71260298 31.76310637 -5.71031905 27.84275296 -5.70513153 23.92234802 C-5.70379428 22.03722611 -5.70544539 20.1520997 -5.71009064 18.26698303 C-5.7151514 15.63554795 -5.70745208 13.00445628 -5.69628906 10.37304688 C-5.70236176 9.19632668 -5.70236176 9.19632668 -5.70855713 7.99583435 C-5.65035603 0.61640248 -5.65035603 0.61640248 0 0 Z " fill="#090909" transform="translate(119.4375,116.625)"/>
<path d="M0 0 C2.16301557 0.12826045 4.32368318 0.20688523 6.48925781 0.27807617 C13.01310021 0.56032628 18.0985935 0.916194 23.90332031 4.19018555 C25.16789062 4.7625293 25.16789062 4.7625293 26.45800781 5.34643555 C29.39730665 7.04865575 30.98858308 8.34909596 32.90332031 11.19018555 C35.02893924 20.593423 33.92719438 30.00395694 28.90332031 38.19018555 C24.25326668 45.38323726 17.86150805 49.28925428 9.90332031 52.19018555 C4.91539155 53.04293399 0.08071509 53.14470807 -4.97167969 53.06518555 C-5.96331116 53.05755692 -5.96331116 53.05755692 -6.97497559 53.04977417 C-18.19833559 52.9166969 -25.53197916 51.52785161 -34.09667969 44.19018555 C-35.09957031 43.48120117 -36.10246094 42.7722168 -37.13574219 42.04174805 C-40.79041138 39.25292335 -43.50655417 36.95538556 -44.98730469 32.52612305 C-45.44980401 27.05321439 -44.04834588 23.4066652 -40.84667969 19.00268555 C-36.00441048 13.60432535 -30.2822482 9.88697237 -24.09667969 6.19018555 C-23.08734375 5.4149353 -23.08734375 5.4149353 -22.05761719 4.62402344 C-14.92411646 -0.47550199 -8.39973794 -0.5040995 0 0 Z " fill="#FE832E" transform="translate(151.0966796875,306.809814453125)"/>
<path d="M0 0 C3.5 0.25 3.5 0.25 5.5 2.25 C5.80297852 4.08178711 5.80297852 4.08178711 5.87890625 6.27734375 C5.93014648 7.46553711 5.93014648 7.46553711 5.98242188 8.67773438 C6.00884766 9.50595703 6.03527344 10.33417969 6.0625 11.1875 C6.12255478 12.82175659 6.18621181 14.45588578 6.25390625 16.08984375 C6.27783447 16.81550537 6.3017627 17.54116699 6.32641602 18.28881836 C6.44269972 20.46369159 6.44269972 20.46369159 7.5 23.25 C7.9846875 22.6209375 8.469375 21.991875 8.96875 21.34375 C23.81578096 2.38523355 23.81578096 2.38523355 32.2578125 0.69921875 C36.77051077 0.32033306 40.08803844 0.26000396 43.87890625 2.91796875 C56.50244002 16.45173835 59.19515955 34.22547455 58.96655273 51.9699707 C58.93707648 54.47347083 58.94610049 56.974909 58.95898438 59.47851562 C58.95275943 61.08334358 58.94437829 62.68816496 58.93359375 64.29296875 C58.93652939 65.03459763 58.93946503 65.7762265 58.94248962 66.54032898 C58.88522203 69.66485712 58.66748463 71.93431382 57.19165039 74.71606445 C55.5 76.25 55.5 76.25 52 76.75 C48.5 76.25 48.5 76.25 46.80444336 74.76367188 C44.90570011 71.10477978 45.09855181 67.55660081 45.12890625 63.53125 C45.11150364 61.77603992 45.09391952 60.02083163 45.07617188 58.265625 C45.06616672 55.5188432 45.06248608 52.77218976 45.06420898 50.02539062 C45.04702664 37.37002207 44.71325915 26.18676749 37.5 15.25 C35.65433892 14.04111376 35.65433892 14.04111376 33.5 14.25 C27.1024399 18.21199774 22.3509331 24.40912766 18 30.4375 C17.36843994 31.30967163 17.36843994 31.30967163 16.72412109 32.19946289 C14.24581402 35.76982791 12.71487066 39.09356752 11.5 43.25 C11.1596875 44.02214844 10.819375 44.79429687 10.46875 45.58984375 C9.42728235 48.44968031 9.21757172 50.66564384 9.15625 53.69921875 C9.12660156 54.71177734 9.09695312 55.72433594 9.06640625 56.76757812 C9.02189003 58.892573 8.97762189 61.01757308 8.93359375 63.14257812 C8.90394531 64.15126953 8.87429687 65.15996094 8.84375 66.19921875 C8.82505859 67.12049561 8.80636719 68.04177246 8.78710938 68.9909668 C8.5 71.25 8.5 71.25 6.5 73.25 C3.0625 73.625 3.0625 73.625 -0.5 73.25 C-3.307774 70.85221251 -3.72771273 68.53541858 -4.02416992 65.01416016 C-4.10772581 63.27310778 -4.17543033 61.53124956 -4.23046875 59.7890625 C-4.270616 58.84807709 -4.31076324 57.90709167 -4.35212708 56.93759155 C-4.43494132 54.93554398 -4.510988 52.93320682 -4.58081055 50.93066406 C-4.68495748 47.94781967 -4.80815421 44.96630702 -4.93554688 41.984375 C-5.3450414 31.95909198 -5.59593982 21.93182634 -5.67578125 11.8984375 C-5.68949265 10.9573111 -5.70320404 10.01618469 -5.71733093 9.04653931 C-5.71949112 8.18217255 -5.72165131 7.31780579 -5.72387695 6.42724609 C-5.72917923 5.66640717 -5.73448151 4.90556824 -5.73994446 4.12167358 C-5.25710955 0.35534637 -3.51210327 0.25086452 0 0 Z " fill="#060606" transform="translate(238.5,286.75)"/>
<path d="M0 0 C3.5 0.25 3.5 0.25 5.5 2.25 C5.91064453 4.12939453 5.91064453 4.12939453 6.1328125 6.3828125 C6.21660156 7.18847656 6.30039062 7.99414062 6.38671875 8.82421875 C6.46535156 9.66597656 6.54398437 10.50773437 6.625 11.375 C6.71136719 12.22449219 6.79773438 13.07398438 6.88671875 13.94921875 C7.09902557 16.04869727 7.30053603 18.14926242 7.5 20.25 C8.93835205 20.279729 8.93835205 20.279729 10.40576172 20.31005859 C13.95811553 20.38604145 17.51005576 20.4747693 21.06201172 20.56738281 C22.60034021 20.60570301 24.13875925 20.64055056 25.67724609 20.671875 C27.88672276 20.71746059 30.09557448 20.7754634 32.3046875 20.8359375 C32.99432587 20.84748871 33.68396423 20.85903992 34.39450073 20.87094116 C39.27225659 21.02225659 39.27225659 21.02225659 41.5 23.25 C41.75 26.75 41.75 26.75 41.5 30.25 C39.5 32.25 39.5 32.25 36.42724609 32.47705078 C35.13898926 32.46657715 33.85073242 32.45610352 32.5234375 32.4453125 C31.83819 32.4424826 31.1529425 32.43965271 30.44692993 32.43673706 C28.25610973 32.42553281 26.06569684 32.40042859 23.875 32.375 C22.3906309 32.36497048 20.9062554 32.35584458 19.421875 32.34765625 C15.78111739 32.32559294 12.14059844 32.29106176 8.5 32.25 C8.77976708 35.62609596 9.0759427 39.00056245 9.375 42.375 C9.45363281 43.32632813 9.53226562 44.27765625 9.61328125 45.2578125 C9.69707031 46.1859375 9.78085937 47.1140625 9.8671875 48.0703125 C9.94050293 48.91867676 10.01381836 49.76704102 10.08935547 50.64111328 C10.43359331 53.33453893 10.43359331 53.33453893 11.50146484 56.11767578 C12.6355352 59.67516298 12.91010915 62.81993623 13.109375 66.546875 C13.14649597 67.23827576 13.18361694 67.92967651 13.22186279 68.64202881 C13.58191677 75.87011738 13.72046731 83.1000331 13.74023438 90.33642578 C13.75018524 92.54104102 13.78148613 94.74481074 13.8125 96.94921875 C13.81901157 98.36718211 13.82426922 99.78515193 13.828125 101.203125 C13.8374707 102.46286133 13.84681641 103.72259766 13.85644531 105.02050781 C13.47557635 108.47128495 13.01744105 109.89179904 10.5 112.25 C7 112.75 7 112.75 3.5 112.25 C1.41971374 110.48123249 0.6052918 109.01921876 0.23416138 106.30789185 C0.12080871 103.80624512 0.11121192 101.32057671 0.12890625 98.81640625 C0.11433746 96.88036737 0.09926204 94.94433225 0.08374023 93.00830078 C0.08074921 91.99544006 0.07775818 90.98257935 0.07467651 89.93902588 C-0.00021045 70.71053129 -1.05627566 52.18928727 -4.5 33.25 C-5.30743652 33.23018066 -6.11487305 33.21036133 -6.94677734 33.18994141 C-10.58985875 33.09494101 -14.23234686 32.98516088 -17.875 32.875 C-19.14601563 32.8440625 -20.41703125 32.813125 -21.7265625 32.78125 C-22.93828125 32.74257813 -24.15 32.70390625 -25.3984375 32.6640625 C-27.07945557 32.61693115 -27.07945557 32.61693115 -28.79443359 32.56884766 C-31.5 32.25 -31.5 32.25 -33.5 30.25 C-33.75 26.75 -33.75 26.75 -33.5 23.25 C-30.82151454 20.57151454 -29.36029139 20.94495994 -25.6171875 20.8359375 C-24.45058594 20.79726563 -23.28398437 20.75859375 -22.08203125 20.71875 C-20.85871094 20.6878125 -19.63539063 20.656875 -18.375 20.625 C-17.14394531 20.58632813 -15.91289062 20.54765625 -14.64453125 20.5078125 C-11.59650624 20.4133001 -8.54849138 20.32774506 -5.5 20.25 C-5.52320313 18.97382813 -5.54640625 17.69765625 -5.5703125 16.3828125 C-5.58906829 14.7135475 -5.60726869 13.0442762 -5.625 11.375 C-5.64175781 10.53324219 -5.65851563 9.69148438 -5.67578125 8.82421875 C-5.68222656 8.01855469 -5.68867188 7.21289062 -5.6953125 6.3828125 C-5.70578613 5.63918457 -5.71625977 4.89555664 -5.72705078 4.12939453 C-5.27097961 0.35430216 -3.51131731 0.25080838 0 0 Z " fill="#050505" transform="translate(319.5,249.75)"/>
<path d="M0 0 C3.52704138 1.40416176 7.15746164 2.96996164 9.875 5.6875 C10.04296875 7.68359375 10.04296875 7.68359375 10.0625 10.125 C10.07667969 10.92808594 10.09085937 11.73117188 10.10546875 12.55859375 C9.875 14.6875 9.875 14.6875 7.875 16.6875 C4.5 17.0625 4.5 17.0625 0.875 16.6875 C-1.375 14.75 -1.375 14.75 -3.125 12.6875 C-6.13278521 11.68490493 -8.66320647 11.38435358 -11.8125 11.125 C-12.80636719 11.04121094 -13.80023438 10.95742187 -14.82421875 10.87109375 C-15.58347656 10.81050781 -16.34273437 10.74992188 -17.125 10.6875 C-19.6043824 16.93023068 -20.44485731 21.97049653 -20.125 28.6875 C-19.05121094 29.00203125 -17.97742188 29.3165625 -16.87109375 29.640625 C-15.43475966 30.07246401 -13.99856932 30.50478132 -12.5625 30.9375 C-11.85802734 31.14246094 -11.15355469 31.34742188 -10.42773438 31.55859375 C-4.12538877 33.47543619 1.2002588 36.29477443 6.5 40.25 C9.2061556 42.23085714 11.98255843 43.98606378 14.875 45.6875 C17.28930671 48.10180671 16.10866127 54.25880387 16.125 57.5 C16.145625 58.51126953 16.16625 59.52253906 16.1875 60.56445312 C16.19523437 62.0272168 16.19523437 62.0272168 16.203125 63.51953125 C16.21714355 64.86108276 16.21714355 64.86108276 16.23144531 66.22973633 C15.79842755 69.21548278 14.94420517 70.51590301 12.875 72.6875 C2.47163627 77.79792429 -11.92305989 76.68784645 -23.125 74.6875 C-26.50973289 71.30276711 -27.06268807 67.62217891 -27.375 62.9375 C-27.125 59.6875 -27.125 59.6875 -25.125 57.6875 C-21.6875 57.3125 -21.6875 57.3125 -18.125 57.6875 C-16.1875 59.5625 -16.1875 59.5625 -15.125 61.6875 C-15.125 62.3475 -15.125 63.0075 -15.125 63.6875 C-12.49961716 63.54696128 -9.87482573 63.40031053 -7.25 63.25 C-6.50363281 63.21068359 -5.75726563 63.17136719 -4.98828125 63.13085938 C-0.92513136 62.97176376 -0.92513136 62.97176376 2.875 61.6875 C3.6785374 57.60404019 3.6785374 57.60404019 2.875 53.6875 C-0.42204919 50.67426274 -4.16058932 48.70565207 -8.125 46.6875 C-9.33929688 46.06681641 -9.33929688 46.06681641 -10.578125 45.43359375 C-14.0696505 43.77939199 -17.41072475 42.5582593 -21.1875 41.75 C-25.76188762 40.65914697 -29.76404433 39.06786353 -33.125 35.6875 C-34.185873 32.31579974 -34.0230923 29.18891419 -33.8125 25.6875 C-33.80154297 24.79804688 -33.79058594 23.90859375 -33.77929688 22.9921875 C-33.62786319 18.04289158 -33.13171309 14.77510741 -30.125 10.6875 C-29.67125 9.511875 -29.2175 8.33625 -28.75 7.125 C-23.65881257 -3.64481956 -10.0760321 -3.25638262 0 0 Z " fill="#ED2027" transform="translate(253.125,146.3125)"/>
<path d="M0 0 C0.82886719 -0.02384766 1.65773438 -0.04769531 2.51171875 -0.07226562 C6.69146033 -0.06229804 9.60679648 0.18908045 12.9453125 2.8359375 C18.44177946 8.70219735 19.96018446 14.55671328 19.8359375 22.49609375 C19.5 24.5625 19.5 24.5625 17.5 26.5625 C14 26.8125 14 26.8125 10.5 26.5625 C8.31385576 24.37635576 7.81743465 23.02370051 6.875 20.125 C6.61460937 19.34253906 6.35421875 18.56007813 6.0859375 17.75390625 C5.5 15.5625 5.5 15.5625 5.5 12.5625 C-1.8316223 12.7175795 -1.8316223 12.7175795 -8.5 15.375 C-9.16 16.096875 -9.82 16.81875 -10.5 17.5625 C-11.098125 18.160625 -11.69625 18.75875 -12.3125 19.375 C-14.15257155 22.76460548 -14.23006384 24.77944193 -13.5 28.5625 C-8.86558402 33.4950363 -1.78576878 34.78422039 4.546875 36.27734375 C8.5587331 38.02324496 9.63517879 39.61190719 11.5 43.5625 C12.09578687 46.89319441 12.14996186 50.12266013 12.125 53.5 C12.15722656 54.36818359 12.18945312 55.23636719 12.22265625 56.13085938 C12.23123548 61.80602114 11.23010335 65.16305381 7.18164062 69.22705078 C1.64013146 73.62775565 -5.86874804 73.28023537 -12.6328125 73.078125 C-18.35187485 72.31558335 -21.01537994 69.97819579 -24.5 65.5625 C-25.28375 64.69625 -26.0675 63.83 -26.875 62.9375 C-30.42947528 57.74249767 -30.9049295 53.73767489 -30.5 47.5625 C-28.5 45.5625 -28.5 45.5625 -25.25 44.875 C-21.5 45.5625 -21.5 45.5625 -19.8125 47.43359375 C-18.28119875 49.7649999 -16.89217651 52.14619364 -15.5 54.5625 C-14.94828125 55.27921875 -14.3965625 55.9959375 -13.828125 56.734375 C-12.5 58.5625 -12.5 58.5625 -12.5 60.5625 C-8.87 59.9025 -5.24 59.2425 -1.5 58.5625 C-1.5 55.2625 -1.5 51.9625 -1.5 48.5625 C-2.31082031 48.294375 -3.12164062 48.02625 -3.95703125 47.75 C-12.37809505 44.7697865 -20.09825706 40.96424294 -26.5 34.5625 C-26.62743425 32.13235841 -26.68521121 29.74319765 -26.6875 27.3125 C-26.69974609 26.64347656 -26.71199219 25.97445313 -26.72460938 25.28515625 C-26.74530614 18.26205368 -24.91178604 14.62955028 -20.25 9.5 C-19.50234375 8.66339844 -18.7546875 7.82679688 -17.984375 6.96484375 C-12.09347247 1.26845215 -7.96982132 -0.10535534 0 0 Z " fill="#040404" transform="translate(369.5,301.4375)"/>
<path d="M0 0 C0.97582031 0.00193359 1.95164062 0.00386719 2.95703125 0.00585938 C12.16652103 0.17547481 12.16652103 0.17547481 15.875 3.5625 C16.3125 7.125 16.3125 7.125 15.875 10.5625 C13.39442372 13.04307628 12.51307536 12.85269005 9.0859375 12.9765625 C8.14492188 13.01523438 7.20390625 13.05390625 6.234375 13.09375 C5.24953125 13.1246875 4.2646875 13.155625 3.25 13.1875 C1.76113281 13.24550781 1.76113281 13.24550781 0.2421875 13.3046875 C-2.21335385 13.3991314 -4.6688841 13.48469875 -7.125 13.5625 C-8.91602769 16.91832031 -9.47766267 19.49977734 -9.75 23.3125 C-9.82476562 24.29734375 -9.89953125 25.2821875 -9.9765625 26.296875 C-10.02554687 27.04453125 -10.07453125 27.7921875 -10.125 28.5625 C-8.9184375 28.52769531 -7.711875 28.49289063 -6.46875 28.45703125 C-4.85418072 28.42887016 -3.23959621 28.40157251 -1.625 28.375 C-0.83351563 28.34986328 -0.04203125 28.32472656 0.7734375 28.29882812 C6.2521472 28.23146694 11.05889709 28.77571068 15.875 31.5625 C20.03136022 36.46556563 21.45797322 43.04223575 22.47265625 49.265625 C22.85812934 51.7869135 22.85812934 51.7869135 24 55 C25.17116813 59.76832738 25.78858161 64.70038772 24.875 69.5625 C18.17103176 75.98956521 9.24130859 75.94214421 0.55371094 75.84960938 C-14.89025372 75.44980737 -14.89025372 75.44980737 -20.125 70.5625 C-20.5 67 -20.5 67 -20.125 63.5625 C-18.125 61.5625 -18.125 61.5625 -15.375 61.33203125 C-14.3025 61.34621094 -13.23 61.36039063 -12.125 61.375 C-11.0525 61.38144531 -9.98 61.38789063 -8.875 61.39453125 C-6.125 61.5625 -6.125 61.5625 -4.125 62.5625 C-1.24129667 62.63444869 1.61739664 62.65541708 4.5 62.625 C5.30179687 62.62048828 6.10359375 62.61597656 6.9296875 62.61132812 C8.91149006 62.59953168 10.89325433 62.58159605 12.875 62.5625 C12.66520508 61.96373047 12.45541016 61.36496094 12.23925781 60.74804688 C10.59060381 56.01333909 9.29287803 51.32510387 8.3046875 46.41015625 C7.93197461 44.48229104 7.93197461 44.48229104 6.875 42.5625 C6.13862305 42.54791748 5.40224609 42.53333496 4.64355469 42.51831055 C1.30350996 42.44378889 -2.03553981 42.34714127 -5.375 42.25 C-6.53386719 42.22744141 -7.69273437 42.20488281 -8.88671875 42.18164062 C-10.00175781 42.14619141 -11.11679687 42.11074219 -12.265625 42.07421875 C-13.29204102 42.04803467 -14.31845703 42.02185059 -15.37597656 41.99487305 C-18.5293745 41.498899 -19.93609733 40.8802748 -22.125 38.5625 C-22.64257812 36.36108398 -22.64257812 36.36108398 -22.65625 33.80859375 C-22.66140625 32.87080078 -22.6665625 31.93300781 -22.671875 30.96679688 C-22.65640625 29.98775391 -22.6409375 29.00871094 -22.625 28 C-22.64046875 27.04802734 -22.6559375 26.09605469 -22.671875 25.11523438 C-22.62650526 16.78421602 -21.08408411 9.10037301 -15.0703125 2.97265625 C-10.44927323 -0.52577854 -5.57924845 -0.21172914 0 0 Z " fill="#ED222A" transform="translate(305.125,148.4375)"/>
<path d="M0 0 C1.65 0 3.3 0 5 0 C12 13.51724138 12 13.51724138 12 19 C12.62567871 18.98952637 13.25135742 18.97905273 13.89599609 18.96826172 C16.7222901 18.92676809 19.54852011 18.90069527 22.375 18.875 C23.35984375 18.85824219 24.3446875 18.84148438 25.359375 18.82421875 C26.77089844 18.81455078 26.77089844 18.81455078 28.2109375 18.8046875 C29.08024902 18.79421387 29.94956055 18.78374023 30.84521484 18.77294922 C33 19 33 19 35 21 C35.06640625 23.8203125 35.06640625 23.8203125 34 27 C31.87320775 29.01797273 29.47089171 30.41885696 26.9375 31.875 C26.27427734 32.2771875 25.61105469 32.679375 24.92773438 33.09375 C23.2956363 34.08005387 21.64912768 35.04244199 20 36 C20.20496094 36.68964844 20.40992188 37.37929688 20.62109375 38.08984375 C22.34067315 44.08780252 23.5978151 49.76613401 24 56 C23.67 56.33 23.34 56.66 23 57 C17.45197245 56.67446031 13.60940491 54.9600694 9.0625 51.9375 C8.47404297 51.56044922 7.88558594 51.18339844 7.27929688 50.79492188 C5.84578537 49.87421123 4.4218428 48.93863006 3 48 C1.27009975 48.93614567 -0.45888696 49.87397958 -2.1875 50.8125 C-3.63189453 51.59560547 -3.63189453 51.59560547 -5.10546875 52.39453125 C-6.99504928 53.44259818 -8.85951894 54.53766715 -10.69140625 55.68359375 C-13.36541178 57.20836509 -14.96899752 57.33677805 -18 57 C-18.33 56.67 -18.66 56.34 -19 56 C-18.55105995 49.04142926 -16.98237956 42.67027085 -15 36 C-15.99902344 35.33613281 -16.99804688 34.67226563 -18.02734375 33.98828125 C-19.33125305 33.09712021 -20.63460999 32.20515059 -21.9375 31.3125 C-22.59685547 30.87744141 -23.25621094 30.44238281 -23.93554688 29.99414062 C-28.73567708 26.67097356 -28.73567708 26.67097356 -30.06640625 23.29296875 C-30 21 -30 21 -28 19 C-25.84521484 18.77294922 -25.84521484 18.77294922 -23.2109375 18.8046875 C-22.26992187 18.81113281 -21.32890625 18.81757812 -20.359375 18.82421875 C-19.37453125 18.84097656 -18.3896875 18.85773437 -17.375 18.875 C-16.38242188 18.88402344 -15.38984375 18.89304687 -14.3671875 18.90234375 C-11.91121866 18.92595884 -9.45572832 18.95889201 -7 19 C-6.81058838 18.23727783 -6.62117676 17.47455566 -6.42602539 16.6887207 C-4.90836366 10.65260347 -2.98624692 5.45762368 0 0 Z " fill="#FF7F27" transform="translate(234,26)"/>
<path d="M0 0 C1.65 0 3.3 0 5 0 C12 13.51724138 12 13.51724138 12 19 C12.62567871 18.98952637 13.25135742 18.97905273 13.89599609 18.96826172 C16.7222901 18.92676809 19.54852011 18.90069527 22.375 18.875 C23.35984375 18.85824219 24.3446875 18.84148438 25.359375 18.82421875 C26.77089844 18.81455078 26.77089844 18.81455078 28.2109375 18.8046875 C29.08024902 18.79421387 29.94956055 18.78374023 30.84521484 18.77294922 C33 19 33 19 35 21 C35.06640625 23.8203125 35.06640625 23.8203125 34 27 C31.87320775 29.01797273 29.47089171 30.41885696 26.9375 31.875 C26.27427734 32.2771875 25.61105469 32.679375 24.92773438 33.09375 C23.2956363 34.08005387 21.64912768 35.04244199 20 36 C20.20496094 36.68964844 20.40992188 37.37929688 20.62109375 38.08984375 C22.34067315 44.08780252 23.5978151 49.76613401 24 56 C23.67 56.33 23.34 56.66 23 57 C17.45197245 56.67446031 13.60940491 54.9600694 9.0625 51.9375 C8.47404297 51.56044922 7.88558594 51.18339844 7.27929688 50.79492188 C5.84578537 49.87421123 4.4218428 48.93863006 3 48 C1.27009975 48.93614567 -0.45888696 49.87397958 -2.1875 50.8125 C-3.63189453 51.59560547 -3.63189453 51.59560547 -5.10546875 52.39453125 C-6.99504928 53.44259818 -8.85951894 54.53766715 -10.69140625 55.68359375 C-13.36541178 57.20836509 -14.96899752 57.33677805 -18 57 C-18.33 56.67 -18.66 56.34 -19 56 C-18.55105995 49.04142926 -16.98237956 42.67027085 -15 36 C-15.99902344 35.33613281 -16.99804688 34.67226563 -18.02734375 33.98828125 C-19.33125305 33.09712021 -20.63460999 32.20515059 -21.9375 31.3125 C-22.59685547 30.87744141 -23.25621094 30.44238281 -23.93554688 29.99414062 C-28.73567708 26.67097356 -28.73567708 26.67097356 -30.06640625 23.29296875 C-30 21 -30 21 -28 19 C-25.84521484 18.77294922 -25.84521484 18.77294922 -23.2109375 18.8046875 C-22.26992187 18.81113281 -21.32890625 18.81757812 -20.359375 18.82421875 C-19.37453125 18.84097656 -18.3896875 18.85773437 -17.375 18.875 C-16.38242188 18.88402344 -15.38984375 18.89304687 -14.3671875 18.90234375 C-11.91121866 18.92595884 -9.45572832 18.95889201 -7 19 C-6.81058838 18.23727783 -6.62117676 17.47455566 -6.42602539 16.6887207 C-4.90836366 10.65260347 -2.98624692 5.45762368 0 0 Z " fill="#FF7F27" transform="translate(151,26)"/>
<path d="M0 0 C1.65 0 3.3 0 5 0 C12 13.51724138 12 13.51724138 12 19 C12.62567871 18.98952637 13.25135742 18.97905273 13.89599609 18.96826172 C16.7222901 18.92676809 19.54852011 18.90069527 22.375 18.875 C23.35984375 18.85824219 24.3446875 18.84148438 25.359375 18.82421875 C26.77089844 18.81455078 26.77089844 18.81455078 28.2109375 18.8046875 C29.08024902 18.79421387 29.94956055 18.78374023 30.84521484 18.77294922 C33 19 33 19 35 21 C35.06640625 23.8203125 35.06640625 23.8203125 34 27 C31.87320775 29.01797273 29.47089171 30.41885696 26.9375 31.875 C26.27427734 32.2771875 25.61105469 32.679375 24.92773438 33.09375 C23.2956363 34.08005387 21.64912768 35.04244199 20 36 C20.20496094 36.68964844 20.40992188 37.37929688 20.62109375 38.08984375 C22.34067315 44.08780252 23.5978151 49.76613401 24 56 C23.67 56.33 23.34 56.66 23 57 C17.45197245 56.67446031 13.60940491 54.9600694 9.0625 51.9375 C8.47404297 51.56044922 7.88558594 51.18339844 7.27929688 50.79492188 C5.84578537 49.87421123 4.4218428 48.93863006 3 48 C1.27009975 48.93614567 -0.45888696 49.87397958 -2.1875 50.8125 C-3.63189453 51.59560547 -3.63189453 51.59560547 -5.10546875 52.39453125 C-6.99504928 53.44259818 -8.85951894 54.53766715 -10.69140625 55.68359375 C-13.36541178 57.20836509 -14.96899752 57.33677805 -18 57 C-18.33 56.67 -18.66 56.34 -19 56 C-18.55105995 49.04142926 -16.98237956 42.67027085 -15 36 C-15.99902344 35.33613281 -16.99804688 34.67226563 -18.02734375 33.98828125 C-19.33125305 33.09712021 -20.63460999 32.20515059 -21.9375 31.3125 C-22.59685547 30.87744141 -23.25621094 30.44238281 -23.93554688 29.99414062 C-28.73567708 26.67097356 -28.73567708 26.67097356 -30.06640625 23.29296875 C-30 21 -30 21 -28 19 C-25.84521484 18.77294922 -25.84521484 18.77294922 -23.2109375 18.8046875 C-22.26992188 18.81113281 -21.32890625 18.81757812 -20.359375 18.82421875 C-19.37453125 18.84097656 -18.3896875 18.85773437 -17.375 18.875 C-16.38242187 18.88402344 -15.38984375 18.89304687 -14.3671875 18.90234375 C-11.91121866 18.92595884 -9.45572832 18.95889201 -7 19 C-6.81058838 18.23727783 -6.62117676 17.47455566 -6.42602539 16.6887207 C-4.90836366 10.65260347 -2.98624692 5.45762368 0 0 Z " fill="#FF7F27" transform="translate(73,26)"/>
<path d="M0 0 C0.98806641 -0.01998047 1.97613281 -0.03996094 2.99414062 -0.06054688 C3.94095703 -0.05990234 4.88777344 -0.05925781 5.86328125 -0.05859375 C7.14585815 -0.06137329 7.14585815 -0.06137329 8.4543457 -0.06420898 C10.6875 0.4375 10.6875 0.4375 12.46630859 2.28442383 C14.09438223 5.15487193 14.05239634 7.28168283 14 10.5625 C13.99613281 11.61695313 13.99226563 12.67140625 13.98828125 13.7578125 C13.6875 16.4375 13.6875 16.4375 11.6875 18.4375 C8.1875 18.6875 8.1875 18.6875 4.6875 18.4375 C2.6875 16.4375 2.6875 16.4375 2.5625 13.8125 C2.60375 13.02875 2.645 12.245 2.6875 11.4375 C-5.25611169 11.70228706 -11.64288047 14.07473875 -18.3125 18.4375 C-23.33639471 23.99115513 -26.10595086 30.34502062 -28.3125 37.4375 C-28.68375 38.18 -29.055 38.9225 -29.4375 39.6875 C-30.79320011 43.94827176 -31.01490205 48.01822046 -30.3125 52.4375 C-28.33480702 55.33248129 -28.33480702 55.33248129 -25.3125 57.4375 C-24.07978151 58.51679001 -22.85071103 59.60025841 -21.625 60.6875 C-17.71289947 64.05312086 -15.55633787 64.64725351 -10.3125 64.4375 C-8.09391747 64.30108623 -8.09391747 64.30108623 -6.3125 63.4375 C-5.26228897 61.58778304 -5.26228897 61.58778304 -4.3125 59.4375 C-2.625 57.1875 -2.625 57.1875 -0.3125 55.4375 C3.3125 55.0625 3.3125 55.0625 6.6875 55.4375 C8.6875 57.4375 8.6875 57.4375 9.25 61.125 C9.1622314 64.85178979 8.17151648 66.49870526 5.5625 69.125 C4.29663395 70.25865337 3.00084071 71.35920366 1.6875 72.4375 C0.78773437 73.3140625 -0.11203125 74.190625 -1.0390625 75.09375 C-4.66318693 78.09003315 -7.97332234 78.32230686 -12.5625 78.25 C-13.31249268 78.24444092 -14.06248535 78.23888184 -14.83520508 78.2331543 C-22.22809829 77.87974416 -26.26183536 74.694917 -31.3125 69.4375 C-32.3835745 68.56801095 -33.46527557 67.71124778 -34.5625 66.875 C-35.47 66.070625 -36.3775 65.26625 -37.3125 64.4375 C-37.87195312 64.02113281 -38.43140625 63.60476562 -39.0078125 63.17578125 C-42.3819753 60.18611607 -43.23642791 58.05720923 -43.79296875 53.5234375 C-44.08429074 45.78961442 -43.72040024 38.47824439 -40.3125 31.4375 C-40.02777832 30.83518555 -39.74305664 30.23287109 -39.44970703 29.61230469 C-30.23954829 10.21619827 -30.23954829 10.21619827 -24.0625 6.25 C-23.00289062 5.54810547 -23.00289062 5.54810547 -21.921875 4.83203125 C-14.43923382 0.83307481 -8.3949023 -0.06143974 0 0 Z " fill="#030303" transform="translate(93.3125,124.5625)"/>
<path d="M0 0 C2.62890625 0.296875 2.62890625 0.296875 4.2265625 1.78125 C4.70996094 2.52890625 5.19335938 3.2765625 5.69140625 4.046875 C6.28179687 4.95308594 6.8721875 5.85929687 7.48046875 6.79296875 C8.2007205 7.95840999 8.91636326 9.12670478 9.62890625 10.296875 C10.30131348 11.39926514 10.30131348 11.39926514 10.98730469 12.52392578 C13.57349211 16.78267395 16.12919404 21.05818793 18.6640625 25.34765625 C20.46731859 28.38763043 22.30999278 31.38531676 24.25 34.33984375 C24.63486572 34.93240967 25.01973145 35.52497559 25.41625977 36.13549805 C26.43154704 37.68634651 27.46321664 39.22643557 28.49609375 40.765625 C28.86992187 41.6009375 29.24375 42.43625 29.62890625 43.296875 C28.69970703 45.45507812 28.69970703 45.45507812 27.62890625 47.296875 C19.81437873 47.32214063 11.99986167 47.33970605 4.18530273 47.35180664 C1.52449144 47.35684883 -1.13631707 47.36368236 -3.79711914 47.37231445 C-7.61214891 47.38438509 -11.42714219 47.39010429 -15.2421875 47.39453125 C-17.03903236 47.40227318 -17.03903236 47.40227318 -18.87217712 47.41017151 C-20.52377586 47.41028481 -20.52377586 47.41028481 -22.20874023 47.41040039 C-23.67101295 47.41373131 -23.67101295 47.41373131 -25.16282654 47.41712952 C-27.37109375 47.296875 -27.37109375 47.296875 -28.37109375 46.296875 C-28.14593195 39.85891526 -25.57962639 35.8122271 -22.05859375 30.546875 C-20.97223855 28.87787598 -19.88631447 27.20859626 -18.80078125 25.5390625 C-18.23842773 24.68280273 -17.67607422 23.82654297 -17.09667969 22.94433594 C-14.236157 18.55561098 -11.46532653 14.11078324 -8.68359375 9.671875 C-7.68126679 8.07452875 -6.6774957 6.47808721 -5.671875 4.8828125 C-5.04019409 3.87806885 -5.04019409 3.87806885 -4.39575195 2.85302734 C-2.74332526 0.34348059 -2.74332526 0.34348059 0 0 Z " fill="#ED1C24" transform="translate(267.37109375,405.703125)"/>
<path d="M0 0 C2.62890625 0.296875 2.62890625 0.296875 4.2265625 1.78125 C4.70996094 2.52890625 5.19335938 3.2765625 5.69140625 4.046875 C6.28179687 4.95308594 6.8721875 5.85929687 7.48046875 6.79296875 C8.2007205 7.95840999 8.91636326 9.12670478 9.62890625 10.296875 C10.30131348 11.39926514 10.30131348 11.39926514 10.98730469 12.52392578 C13.57349211 16.78267395 16.12919404 21.05818793 18.6640625 25.34765625 C20.46731859 28.38763043 22.30999278 31.38531676 24.25 34.33984375 C24.63486572 34.93240967 25.01973145 35.52497559 25.41625977 36.13549805 C26.43154704 37.68634651 27.46321664 39.22643557 28.49609375 40.765625 C28.86992187 41.6009375 29.24375 42.43625 29.62890625 43.296875 C28.69970703 45.45507812 28.69970703 45.45507812 27.62890625 47.296875 C19.81437873 47.32214063 11.99986167 47.33970605 4.18530273 47.35180664 C1.52449144 47.35684883 -1.13631707 47.36368236 -3.79711914 47.37231445 C-7.61214891 47.38438509 -11.42714219 47.39010429 -15.2421875 47.39453125 C-17.03903236 47.40227318 -17.03903236 47.40227318 -18.87217712 47.41017151 C-20.52377586 47.41028481 -20.52377586 47.41028481 -22.20874023 47.41040039 C-23.67101295 47.41373131 -23.67101295 47.41373131 -25.16282654 47.41712952 C-27.37109375 47.296875 -27.37109375 47.296875 -28.37109375 46.296875 C-28.14593195 39.85891526 -25.57962639 35.8122271 -22.05859375 30.546875 C-20.97223855 28.87787598 -19.88631447 27.20859626 -18.80078125 25.5390625 C-18.23842773 24.68280273 -17.67607422 23.82654297 -17.09667969 22.94433594 C-14.236157 18.55561098 -11.46532653 14.11078324 -8.68359375 9.671875 C-7.68126679 8.07452875 -6.6774957 6.47808721 -5.671875 4.8828125 C-5.04019409 3.87806885 -5.04019409 3.87806885 -4.39575195 2.85302734 C-2.74332526 0.34348059 -2.74332526 0.34348059 0 0 Z " fill="#ED1C24" transform="translate(398.37109375,404.703125)"/>
<path d="M0 0 C2.62890625 0.296875 2.62890625 0.296875 4.2265625 1.78125 C4.70996094 2.52890625 5.19335938 3.2765625 5.69140625 4.046875 C6.28179687 4.95308594 6.8721875 5.85929687 7.48046875 6.79296875 C8.2007205 7.95840999 8.91636326 9.12670478 9.62890625 10.296875 C10.30131348 11.39926514 10.30131348 11.39926514 10.98730469 12.52392578 C13.57349211 16.78267395 16.12919404 21.05818793 18.6640625 25.34765625 C20.46731859 28.38763043 22.30999278 31.38531676 24.25 34.33984375 C24.63486572 34.93240967 25.01973145 35.52497559 25.41625977 36.13549805 C26.43154704 37.68634651 27.46321664 39.22643557 28.49609375 40.765625 C28.86992187 41.6009375 29.24375 42.43625 29.62890625 43.296875 C28.69970703 45.45507812 28.69970703 45.45507812 27.62890625 47.296875 C19.81437873 47.32214063 11.99986167 47.33970605 4.18530273 47.35180664 C1.52449144 47.35684883 -1.13631707 47.36368236 -3.79711914 47.37231445 C-7.61214891 47.38438509 -11.42714219 47.39010429 -15.2421875 47.39453125 C-17.03903236 47.40227318 -17.03903236 47.40227318 -18.87217712 47.41017151 C-20.52377586 47.41028481 -20.52377586 47.41028481 -22.20874023 47.41040039 C-23.67101295 47.41373131 -23.67101295 47.41373131 -25.16282654 47.41712952 C-27.37109375 47.296875 -27.37109375 47.296875 -28.37109375 46.296875 C-28.14593195 39.85891526 -25.57962639 35.8122271 -22.05859375 30.546875 C-20.97223855 28.87787598 -19.88631447 27.20859626 -18.80078125 25.5390625 C-18.23842773 24.68280273 -17.67607422 23.82654297 -17.09667969 22.94433594 C-14.236157 18.55561098 -11.46532653 14.11078324 -8.68359375 9.671875 C-7.68126679 8.07452875 -6.6774957 6.47808721 -5.671875 4.8828125 C-5.04019409 3.87806885 -5.04019409 3.87806885 -4.39575195 2.85302734 C-2.74332526 0.34348059 -2.74332526 0.34348059 0 0 Z " fill="#ED1C24" transform="translate(332.37109375,404.703125)"/>
<path d="M0 0 C4.84413858 3.37855525 8.15963692 7.68204928 11.7734375 12.29296875 C13.82981053 14.94264816 13.82981053 14.94264816 15.9140625 16.67578125 C19.13073223 19.50370653 20.12527706 21.85014042 20.5390625 26.06640625 C20.61121997 27.60587516 20.66026561 29.1465816 20.6875 30.6875 C20.71662476 31.81212646 20.71662476 31.81212646 20.74633789 32.95947266 C20.66519098 36.70904836 20.39581351 38.58616346 17.76953125 41.33203125 C16.85558594 41.88246094 15.94164062 42.43289063 15 43 C14.25878906 43.51884766 13.51757812 44.03769531 12.75390625 44.57226562 C9.38124501 46.32078716 6.95593778 46.42828331 3.16796875 46.51171875 C1.87568359 46.54716797 0.58339844 46.58261719 -0.74804688 46.61914062 C-2.10285934 46.64223681 -3.45767718 46.66501935 -4.8125 46.6875 C-6.18688117 46.72069761 -7.56123171 46.75518953 -8.93554688 46.79101562 C-12.29028234 46.87341264 -15.64475904 46.94259395 -19 47 C-19.19318246 42.26817511 -19.37175183 37.53610177 -19.53710938 32.80322266 C-19.59531968 31.19500136 -19.65744199 29.58691651 -19.72363281 27.97900391 C-19.81837323 25.66073469 -19.89878931 23.34233057 -19.9765625 21.0234375 C-20.00875885 20.31069672 -20.0409552 19.59795593 -20.0741272 18.86361694 C-20.20396862 14.4849855 -19.73537561 11.03026025 -18 7 C-12.75594054 1.71695125 -7.42578793 -1.38446894 0 0 Z " fill="#FFFEFD" transform="translate(99,246)"/>
<path d="M0 0 C1.23234375 0.02707031 2.4646875 0.05414063 3.734375 0.08203125 C5.51714844 0.14197266 5.51714844 0.14197266 7.3359375 0.203125 C8.96474854 0.25194824 8.96474854 0.25194824 10.62646484 0.30175781 C13.97453099 0.80225036 15.92897395 1.72567801 18.625 3.75 C19.72879778 8.03447821 19.14272257 12.41001216 17.5625 16.5 C14.07114524 20.55447649 9.74952388 25.5045372 4.16992188 25.94287109 C0.82155195 26.0305665 -2.52572146 26.0846914 -5.875 26.125 C-7.02226562 26.16238281 -8.16953125 26.19976562 -9.3515625 26.23828125 C-17.69760449 26.32383293 -24.88238972 25.08229677 -31.09228516 19.09399414 C-32.5 17.4375 -32.5 17.4375 -34.375 14.75 C-22.66925692 3.73988509 -16.13984848 -0.55365385 0 0 Z " fill="#FFFEFE" transform="translate(153.375,320.25)"/>
<path d="M0 0 C3.5 0.25 3.5 0.25 5.5 2.25 C5.69851578 4.94983375 5.77272785 7.54709415 5.75878906 10.24804688 C5.7622937 11.07417984 5.76579834 11.90031281 5.76940918 12.7514801 C5.77823381 15.49065478 5.7723748 18.22957256 5.765625 20.96875 C5.76697144 22.8668218 5.7689118 24.76489326 5.77142334 26.66296387 C5.77437559 30.64432045 5.77007371 34.62558741 5.76074219 38.60693359 C5.7493476 43.71852503 5.75590653 48.82990645 5.76788712 53.94149017 C5.77510298 57.86189363 5.77281905 61.78224704 5.76763153 65.70265198 C5.76629428 67.58777389 5.76794539 69.4729003 5.77259064 71.35801697 C5.7776514 73.98945205 5.76995208 76.62054372 5.75878906 79.25195312 C5.76283752 80.03643326 5.76688599 80.82091339 5.77105713 81.62916565 C5.72852836 87.02147164 5.72852836 87.02147164 3.5 89.25 C0 89.5 0 89.5 -3.5 89.25 C-6.03996453 86.71003547 -5.74373475 85.09342373 -5.77105713 81.62916565 C-5.76700867 80.84468552 -5.76296021 80.06020538 -5.75878906 79.25195312 C-5.7622937 78.42582016 -5.76579834 77.59968719 -5.76940918 76.7485199 C-5.77823381 74.00934522 -5.7723748 71.27042744 -5.765625 68.53125 C-5.76697144 66.6331782 -5.7689118 64.73510674 -5.77142334 62.83703613 C-5.77437559 58.85567955 -5.77007371 54.87441259 -5.76074219 50.89306641 C-5.7493476 45.78147497 -5.75590653 40.67009355 -5.76788712 35.55850983 C-5.77510298 31.63810637 -5.77281905 27.71775296 -5.76763153 23.79734802 C-5.76629428 21.91222611 -5.76794539 20.0270997 -5.77259064 18.14198303 C-5.7776514 15.51054795 -5.76995208 12.87945628 -5.75878906 10.24804688 C-5.76486176 9.07132668 -5.76486176 9.07132668 -5.77105713 7.87083435 C-5.71219835 0.40801417 -5.71219835 0.40801417 0 0 Z " fill="#000000" transform="translate(119.5,116.75)"/>
<path d="M0 0 C1.83984375 0.76953125 1.83984375 0.76953125 3.71484375 2.83203125 C4.08609375 3.80140625 4.45734375 4.77078125 4.83984375 5.76953125 C5.11441406 6.34960938 5.38898438 6.9296875 5.671875 7.52734375 C8.03940378 12.86779679 8.58421611 17.97889434 7.83984375 23.76953125 C5.81043199 28.79894301 5.81043199 28.79894301 3.83984375 30.76953125 C0.28613102 31.07819804 -3.28219556 31.04803131 -6.84765625 31.08203125 C-7.84216797 31.11103516 -8.83667969 31.14003906 -9.86132812 31.16992188 C-15.87958266 31.22197597 -19.71102125 31.02425026 -24.16015625 26.76953125 C-24.99858542 20.27170517 -23.88599892 15.30436267 -20.16015625 9.83203125 C-14.741557 3.83969796 -8.4797769 -1.83306249 0 0 Z " fill="#FCFCFC" transform="translate(163.16015625,166.23046875)"/>
<path d="M0 0 C3.625 0.4375 3.625 0.4375 6 2.8125 C8.27518632 6.48780098 8.77221796 8.44386426 8.90625 12.75 C8.94363281 13.82636719 8.98101562 14.90273438 9.01953125 16.01171875 C9.05433594 17.14222656 9.08914062 18.27273438 9.125 19.4375 C9.34387653 26.35237707 9.65962962 33.19190431 10.40673828 40.0703125 C10.77139075 44.02520103 10.80915889 47.96826427 10.8125 51.9375 C10.82474609 52.73414063 10.83699219 53.53078125 10.84960938 54.3515625 C10.85477044 56.38158289 10.74850179 58.41123331 10.625 60.4375 C8.625 62.4375 8.625 62.4375 5.1875 62.8125 C1.625 62.4375 1.625 62.4375 -0.04052734 60.69628906 C-1.45458162 58.30279653 -1.92543487 56.66237189 -2.2890625 53.921875 C-2.40999268 53.01518066 -2.53092285 52.10848633 -2.65551758 51.17431641 C-2.76919678 50.18866699 -2.88287598 49.20301758 -3 48.1875 C-3.12334717 47.15931152 -3.24669434 46.13112305 -3.3737793 45.07177734 C-4.39886546 35.75193835 -4.86234478 26.42791967 -5.1875 17.0625 C-5.21491272 16.34783569 -5.24232544 15.63317139 -5.27056885 14.89685059 C-5.34503609 12.8613344 -5.4014282 10.82518131 -5.45703125 8.7890625 C-5.49030518 7.61166504 -5.5235791 6.43426758 -5.55786133 5.22119141 C-5.2784868 0.9682831 -4.13536502 0.53606584 0 0 Z " fill="#FE8633" transform="translate(202.375,301.5625)"/>
<path d="M0 0 C3.00555096 0.8622083 3.76837398 1.81945546 5.41015625 4.44140625 C6.11449474 5.83972531 6.78204862 7.25722715 7.41015625 8.69140625 C7.77625 9.27148438 8.14234375 9.8515625 8.51953125 10.44921875 C9.86645414 13.8401562 9.69871075 17.22441215 9.66015625 20.81640625 C9.66789062 21.54472656 9.675625 22.27304687 9.68359375 23.0234375 C9.66357694 28.43798556 9.66357694 28.43798556 7.41015625 30.69140625 C0.6382094 31.12137113 -6.03211423 30.50739289 -12.58984375 28.69140625 C-15.11369898 26.16755102 -14.87679616 24.52333001 -14.91210938 21.07226562 C-14.90888672 20.34845703 -14.90566406 19.62464844 -14.90234375 18.87890625 C-14.91845703 18.16669922 -14.93457031 17.45449219 -14.95117188 16.72070312 C-14.95540893 12.14044791 -14.28141868 9.3823283 -11.58984375 5.69140625 C-11.07421875 4.76328125 -10.55859375 3.83515625 -10.02734375 2.87890625 C-6.73572549 -0.07511014 -4.33815085 -0.19805991 0 0 Z " fill="#FE7F28" transform="translate(204.58984375,257.30859375)"/>
</svg>
